<svg xmlns="http://www.w3.org/2000/svg" width="346" height="52" viewBox="0 0 346 52" xmlns:xlink="http://www.w3.org/1999/xlink">
  <defs>
    <linearGradient id="b" x1="100%" x2="0%" y1="0%" y2="100%">
      <stop stop-color="#80DE3F" offset="0%"/>
      <stop stop-color="#C2E159" offset="100%"/>
    </linearGradient>
    <path id="a" d="M10.064962,51.6875834 L10.064962,72.2850467 L6,72.2850467 L6,22.7149533 L23.1138316,22.7149533 C28.3288509,22.7149533 32.3653064,24.0370362 35.2233192,26.6812417 C38.081332,29.3254471 39.5103169,32.8264135 39.5103169,37.1842457 C39.5103169,41.5874719 38.081332,45.1054608 35.2233192,47.7383178 C32.3653064,50.3711747 28.3288509,51.6875834 23.1138316,51.6875834 L10.064962,51.6875834 Z M10.064962,48.2149533 L23.1138316,48.2149533 C27.2129734,48.2149533 30.2929768,47.1765791 32.3539342,45.0997997 C34.4148917,43.0230203 35.4453549,40.4072254 35.4453549,37.2523364 C35.4453549,34.0747505 34.4205848,31.4362588 32.3710139,29.3367824 C30.321443,27.2373059 27.2357464,26.1875834 23.1138316,26.1875834 L10.064962,26.1875834 L10.064962,48.2149533 Z M85.6937506,72.2850467 L81.6287886,72.2850467 L81.6287886,49.4746328 L53.3448514,49.4746328 L53.3448514,72.2850467 L49.2798894,72.2850467 L49.2798894,22.7149533 L53.3448514,22.7149533 L53.3448514,46.0020027 L81.6287886,46.0020027 L81.6287886,22.7149533 L85.6937506,22.7149533 L85.6937506,72.2850467 Z M125.455228,58.4626168 L102.670945,58.4626168 L97.5470431,72.2850467 L93.3112844,72.2850467 L112.201402,22.7149533 L116.061408,22.7149533 L134.814888,72.2850467 L130.579129,72.2850467 L125.455228,58.4626168 Z M104.037319,54.8197597 L124.123013,54.8197597 L114.216803,27.9919893 L114.011847,27.9919893 L104.037319,54.8197597 Z M146.531543,68.8464619 L171.126271,68.8464619 L171.126271,72.2850467 L142.432422,72.2850467 L142.432422,22.7149533 L146.531543,22.7149533 L146.531543,68.8464619 Z M206.002962,58.4626168 L183.218679,58.4626168 L178.094777,72.2850467 L173.859019,72.2850467 L192.749136,22.7149533 L196.609142,22.7149533 L215.362622,72.2850467 L211.126863,72.2850467 L206.002962,58.4626168 Z M184.585053,54.8197597 L204.670747,54.8197597 L194.764537,27.9919893 L194.559581,27.9919893 L184.585053,54.8197597 Z M259.598973,72.2850467 L255.534011,72.2850467 L227.284233,29.6602136 L227.079277,29.694259 L227.079277,72.2850467 L222.980156,72.2850467 L222.980156,22.7149533 L227.079277,22.7149533 L255.329055,65.2716956 L255.534011,65.2376502 L255.534011,22.7149533 L259.598973,22.7149533 L259.598973,72.2850467 Z M308.139402,66.3951936 C307.023524,68.0066836 304.991064,69.5103402 302.041959,70.9062083 C299.092854,72.3020764 295.375216,73 290.888933,73 C285.104588,73 280.36218,71.0367353 276.661566,67.1101469 C272.960952,63.1835585 271.110672,58.0994972 271.110672,51.8578104 L271.110672,42.7676903 C271.110672,36.6394887 272.869861,31.6462142 276.388291,27.787717 C279.906721,23.9292197 284.466948,22 290.069109,22 C295.420766,22 299.605244,23.3334313 302.622668,26.0003338 C305.640091,28.6672363 307.387894,32.1341576 307.866127,36.4012016 L307.797808,36.605474 L304.006121,36.605474 C303.414023,33.2917057 302.013504,30.6078207 299.804522,28.5537383 C297.59554,26.499656 294.350434,25.4726302 290.069109,25.4726302 C285.605599,25.4726302 282.01321,27.084096 279.291835,30.3070761 C276.570461,33.5300562 275.209794,37.660856 275.209794,42.6995995 L275.209794,51.8578104 C275.209794,57.0327362 276.655858,61.2770195 279.54803,64.5907877 C282.440203,67.904556 286.220466,69.5614152 290.888933,69.5614152 C294.191019,69.5614152 296.997751,69.101807 299.309211,68.1825768 C301.620672,67.2633465 303.197679,66.2590175 304.04028,65.1695594 L304.04028,52.2323097 L290.820614,52.2323097 L290.820614,48.7596796 L308.139402,48.7596796 L308.139402,66.3951936 Z M348.515747,48.2830441 L324.570046,48.2830441 L324.570046,68.8464619 L352,68.8464619 L352,72.2850467 L320.505084,72.2850467 L320.505084,22.7149533 L351.829203,22.7149533 L351.829203,26.1875834 L324.570046,26.1875834 L324.570046,44.8104139 L348.515747,44.8104139 L348.515747,48.2830441 Z"/>
  </defs>
  <g fill="none" fill-rule="evenodd" transform="translate(-6 -22)">
    <use fill="#80DE3F" xlink:href="#a"/>
    <use fill="url(#b)" xlink:href="#a"/>
  </g>
</svg>
